<?xml version="1.0" encoding="UTF-8" standalone="no"?>
<!-- Created with Inkscape (http://www.inkscape.org/) -->

<svg
   xmlns:dc="http://purl.org/dc/elements/1.1/"
   xmlns:cc="http://creativecommons.org/ns#"
   xmlns:rdf="http://www.w3.org/1999/02/22-rdf-syntax-ns#"
   xmlns:svg="http://www.w3.org/2000/svg"
   xmlns="http://www.w3.org/2000/svg"
   xmlns:inkscape="http://www.inkscape.org/namespaces/inkscape"
   version="1.1"
   width="158.14531"
   height="195.41837"
   id="svg2">
  <defs
     id="defs4">
    <inkscape:path-effect
       effect="sketch"
       id="path-effect2999" />
  </defs>
  <metadata
     id="metadata7">
    <rdf:RDF>
      <cc:Work
         rdf:about="">
        <dc:format>image/svg+xml</dc:format>
        <dc:type
           rdf:resource="http://purl.org/dc/dcmitype/StillImage" />
        <dc:title></dc:title>
      </cc:Work>
    </rdf:RDF>
  </metadata>
  <g
     transform="translate(-235.57463,-272.92996)"
     id="layer1">
    <path
       d="m 324.58738,288.59189 c -0.6619,-0.14701 -1.32533,-0.2901 -1.99024,-0.42901 -9.5675,1.90591 -19.44705,4.01618 -29.51244,6.23228 -6.67981,7.14667 -13.99856,14.04101 -20.61234,21.51223 -3.24574,5.40345 -6.57346,10.7868 -9.88612,16.15772 m 6.21242,-22.89257 c -6.35865,10.41703 -12.58027,20.95826 -18.22013,31.77273 -2.7802,11.02302 -5.74798,22.09775 -8.02438,33.2829 0.0207,0.32509 0.0414,0.6502 0.0622,0.97534 m -4.31743,-3.35103 c -0.87513,2.65637 -1.70559,5.31375 -2.47942,7.97312 -0.12564,12.0363 0.13131,24.01728 0.55746,35.86044 4.83615,8.25611 9.77986,16.42461 14.72298,24.46368 m 0.34453,-6.88996 c 2.64873,4.61741 5.24123,9.19706 7.79368,13.75067 10.88996,5.80665 21.55703,11.4684 32.21368,17.13943 13.69966,-0.99644 27.38572,-1.98076 41.37536,-2.72289 0.89432,-0.54531 1.79364,-1.08599 2.69732,-1.62271 m -33.27342,-5.31627 c 7.28055,-0.80774 14.77628,-1.5728 22.4531,-2.32414 9.48851,-6.32834 19.74482,-12.26186 29.67716,-18.84999 5.99476,-8.27899 12.43728,-16.4959 18.71468,-24.96295 m -10.15004,21.28756 c 3.73078,-5.80813 7.65863,-11.81743 11.5277,-18.10367 4.82036,-14.4841 10.28573,-29.72814 16.12202,-45.48181 -0.25003,-3.84292 -0.45852,-7.72047 -0.64299,-11.62523 m -6.16863,15.96655 c 0.15936,-0.54016 0.31979,-1.08046 0.48127,-1.62092 -2.4823,-13.56674 -4.0322,-27.31145 -5.69735,-40.98914 -3.62445,-9.4316 -7.0266,-18.90913 -10.29063,-28.43196 -0.30376,-0.24849 -0.60728,-0.49705 -0.91058,-0.74568 m 9.83097,5.73401 c -1.25807,-3.02486 -2.54338,-6.02609 -3.85403,-9.00459 -5.5225,-3.89887 -11.15447,-7.69961 -16.87896,-11.41023 -8.5e-4,0.001 -0.002,0.002 -0.003,0.003 -11.63663,-1.87582 -23.54999,-4.01422 -35.63246,-5.08344 -1.79903,0.5033 -3.60217,1.01154 -5.40916,1.52458 m -8.00735,2.73067 c -5.79428,1.44082 -11.66548,2.79523 -17.59677,4.07447 -6.54988,7.07561 -13.72209,13.60937 -20.21542,20.56802 -6.96466,11.15986 -14.37297,21.91873 -21.30514,32.71563 -0.40613,1.21057 -0.8174,2.41878 -1.23195,3.62498 m 13.82109,-21.80019 c -3.34624,5.84051 -6.57443,11.62673 -9.62125,17.4249 -2.95392,11.27789 -6.02565,22.41189 -8.33523,33.7079 0.75932,12.63974 1.71596,25.38064 2.7683,38.45527 0.16675,0.28872 0.33356,0.57764 0.50043,0.86678 m -5.70019,-21.23172 c 0.48007,7.25221 0.81122,14.44884 1.04149,21.60368 5.4988,9.83209 10.75095,19.56203 15.9401,29.24254 7.90297,4.10221 15.76452,8.17192 23.68256,12.23726 m -19.00283,-12.40748 c 7.61916,4.01359 15.04061,7.86341 22.33385,11.58769 13.70785,-1.25425 27.05768,-2.85906 40.37375,-4.63618 6.63805,-4.91357 13.46242,-9.69286 20.1597,-14.67857 m -19.30658,19.50617 c 8.85363,-5.44565 17.82602,-10.4135 26.29008,-15.6159 6.16689,-8.5262 12.6207,-16.59562 18.71137,-24.55739 2.35834,-5.68171 4.76429,-11.22806 7.25065,-16.63063 m -1.38791,8.73727 c 3.69569,-12.282 7.58327,-24.65354 11.40354,-36.7838 -2.00573,-10.09633 -3.8552,-20.09431 -6.09495,-29.70888 m 3.91543,4.15895 c -0.89585,-6.41609 -1.88081,-12.76041 -3.03109,-19.02798 -4.24755,-9.4084 -8.64206,-18.69934 -13.16526,-27.94944 -5.82211,-3.89202 -11.70173,-7.7658 -17.63336,-11.64422 -0.002,2.5e-4 -0.004,5e-4 -0.006,7.4e-4 -3.1313,-0.56488 -6.27351,-1.16681 -9.42579,-1.78308 m 13.3127,7.24601 c -1.27299,-0.83983 -2.54082,-1.68143 -3.80366,-2.52452 -3.4e-4,8.7e-4 -6.7e-4,0.002 -0.001,0.003 -11.45615,-1.94839 -22.6267,-4.50989 -33.57989,-6.18401 -9.63233,2.43799 -19.0955,4.90053 -28.43729,7.46804 -4.42909,5.5307 -9.05164,10.92435 -13.39206,16.57613 m 36.828,-22.13612 c -7.33421,1.82454 -14.73492,3.46168 -22.17809,4.93618 -6.54193,6.90793 -13.62116,13.20133 -19.95758,19.85625 -6.74604,10.73668 -13.80907,20.94349 -20.32302,31.07712 -0.40559,1.27463 -0.81659,2.54484 -1.23051,3.81115 m 11.08091,-23.27293 c -3.84573,6.83367 -7.6587,13.68398 -11.29954,20.63688 -2.93164,11.27138 -6.17627,22.58624 -8.75714,34.15839 0.46492,12.93939 1.00997,26.09354 1.65265,39.58193 0.70024,1.3376 1.40169,2.67935 2.10438,4.02542 m -4.70242,-34.31319 c 0.18837,8.11354 0.46892,16.14039 0.8501,24.09339 5.66862,9.69999 11.5317,19.25725 17.6119,28.70621 7.77626,3.52904 15.66855,7.00021 23.68573,10.42696 m -25.8943,1.81023 c 8.32807,4.01352 16.63649,8.08585 24.99386,12.17217 14.11026,-1.32196 28.33161,-2.61216 42.89855,-4.02395 6.61695,-4.20515 13.49761,-8.28661 20.39487,-12.54308 m -17.5401,12.31608 c 9.30585,-6.20423 18.83745,-12.09905 27.70635,-18.65771 5.83281,-9.42554 11.88564,-18.7926 17.42653,-28.5108 2.82241,-9.5138 5.62114,-19.12327 8.4277,-28.85693 m -4.3883,25.09893 c 3.83558,-13.65974 8.14313,-26.63949 12.72673,-39.28071 -1.77603,-13.21665 -2.95197,-26.18153 -4.56883,-39.00456 -1.85957,-4.55856 -3.70735,-9.11785 -5.55462,-13.69751 m 5.33446,28.21317 c -0.61996,-4.16586 -1.26609,-8.35313 -1.96085,-12.55825 -4.09901,-9.63201 -8.20756,-19.45582 -12.31882,-29.52092 -5.54679,-4.43673 -11.09481,-8.98124 -16.64197,-13.64831 2e-5,-0.004 4e-5,-0.007 6e-5,-0.0109 -10.20406,-3.15593 -20.40865,-7.04228 -30.60053,-10.66707 m 18.84324,12.76639 c -9.60336,-2.08617 -19.03476,-4.32647 -28.33707,-5.94825 -9.84446,2.19176 -19.54531,4.4112 -29.15603,6.62794 -6.24704,7.14729 -12.87843,13.94316 -18.71662,21.2775 -1.59495,3.07908 -3.20445,6.14609 -4.81741,9.20543 m 82.41097,-41.21778 c -8.40452,-1.46892 -16.97373,-3.08316 -25.64827,-4.14774 -9.98987,2.68727 -20.12544,5.44471 -30.32363,8.39742 -6.80622,7.84781 -14.1395,15.53022 -20.69362,24.05463 -0.5737,1.08578 -1.14907,2.17444 -1.72561,3.2663 m 17.76337,-13.79092 c -4.30449,4.33171 -8.59461,8.69351 -12.58979,13.3004 -6.91648,11.8412 -14.09862,23.70883 -20.93465,35.89831 -1.22982,4.1919 -2.52177,8.39017 -3.82957,12.60077 m 5.6343,-5.97186 c -2.6281,9.45936 -5.51627,19.05193 -7.93253,28.78517 0.33463,12.1883 0.66175,24.49043 1.05499,36.75915 3.31114,5.91708 6.6422,11.82409 10.00535,17.69669 m -12.23916,-16.57874 c 4.84455,9.87365 9.87783,19.56755 14.96629,29.14879 10.39324,5.46705 20.85156,10.80126 31.20399,16.08858 1.98859,-0.21372 3.97411,-0.4288 5.95572,-0.64481 m -11.39876,-0.2547 c 1.50556,0.82549 3.01433,1.64178 4.52631,2.44914 13.6486,-1.0016 27.50384,-2.57814 41.56364,-4.59546 9.61015,-6.86136 19.72833,-13.65761 29.37614,-21.25102 0.93526,-1.48983 1.87936,-2.98118 2.82998,-4.47494 m -18.71516,4.15519 c 3.41081,-2.41023 6.82186,-4.80156 10.17725,-7.23216 5.813,-9.27736 12.1199,-18.10395 18.06173,-26.96796 4.91543,-13.56142 10.04971,-26.7632 15.20835,-39.89062 -0.36925,-2.90518 -0.72052,-5.81174 -1.06583,-8.71954 m -4.63711,36.09019 c 1.95964,-5.98374 3.99556,-12.06869 6.09765,-18.2205 -2.01187,-13.30331 -3.41688,-26.98829 -5.14696,-40.50343 -2.53278,-6.42114 -5.01462,-12.83706 -7.45768,-19.20653 m 15.95762,5.86151 c -3.31956,-7.6294 -6.69248,-15.27624 -10.10099,-22.92667 -5.5514,-3.88742 -11.12602,-7.77719 -16.71448,-11.662 -1.8e-4,2.1e-4 -3.7e-4,4.3e-4 -5.5e-4,6.4e-4 -11.40406,-2.17335 -22.85213,-4.8612 -34.28749,-6.64104 -0.78561,0.18303 -1.57118,0.36631 -2.35671,0.54984 m 8.22034,4.14865 c -2.99735,-0.61792 -6.02008,-1.18836 -9.066,-1.68436 -9.93218,2.29183 -20.1194,4.71337 -30.50315,7.26152 -6.98284,7.46273 -14.61648,14.69442 -21.60989,22.60047 -4.22427,6.881 -8.60931,13.79245 -13.00815,20.78431 m 12.23261,-27.50373 c -0.1052,0.11761 -0.21018,0.23539 -0.31493,0.35335 -6.90776,11.58815 -13.90277,23.24112 -20.35887,35.19878 -2.98014,11.05169 -6.26893,22.13582 -8.96629,33.33453 0.17453,6.46245 0.34763,12.9368 0.50817,19.41589 m 5.96613,-30.27183 c -0.4291,1.90112 -0.85616,3.80851 -1.27532,5.72294 0.62815,12.42779 0.86935,25.04398 0.93952,37.89165 5.20267,10.35084 10.26335,20.89387 15.34538,31.66165 3.53727,2.2555 7.07743,4.54126 10.62853,6.8589 m -24.742,-1.8123 c 1.26728,2.43374 2.5464,4.85984 3.83674,7.27926 10.54239,5.70296 21.30191,11.2767 32.22643,16.80285 14.00582,-1.16202 28.22718,-2.38619 42.58629,-3.55077 2.20555,-1.38072 4.43436,-2.74109 6.67503,-4.09114 m -23.20996,-10.3372 c 5.09817,-0.68985 10.27107,-1.29584 15.50144,-1.83689 9.04064,-6.34501 18.69731,-12.04197 27.84966,-18.22553 4.08427,-6.0907 8.34652,-12.06706 12.49839,-18.09524 m -1.77974,18.70086 c 3.82269,-5.57927 7.45158,-11.16644 10.73805,-16.85043 4.22193,-14.28795 7.59907,-28.64192 10.38203,-43.14166 -3.15733,-11.54962 -6.45005,-23.24977 -10.23174,-34.99605 m 17.17672,33.48762 c -1.35644,-11.55087 -2.7837,-23.26565 -4.66145,-34.9095 -3.99867,-9.26362 -8.04284,-18.55747 -12.03003,-27.8328 -5.46387,-3.90889 -10.9023,-7.80951 -16.28466,-11.68731 8.3e-4,2.5e-4 0.002,5e-4 0.002,7.5e-4 -2.92451,-0.57184 -5.83768,-1.17609 -8.73656,-1.78568 m 13.39074,-4.60009 c -4.65652,-3.23768 -9.26686,-6.44226 -13.83123,-9.60843 5.4e-4,7.6e-4 0.001,0.002 0.002,0.002 -11.15267,-1.985 -22.11514,-4.33696 -32.89253,-5.63505 -6.55987,1.91903 -13.04972,3.91383 -19.46995,5.99458 m 17.09215,10.69979 c -8.91698,2.06742 -17.50003,3.97498 -25.82193,5.75561 -6.32496,7.01134 -12.79324,13.51562 -18.28465,20.47904 -4.57832,9.18052 -9.05397,18.13482 -13.17242,27.10524 m 4.93139,-23.22774 c -4.93129,7.67763 -9.62092,15.66855 -13.88768,23.9858 -2.75923,11.14843 -5.57502,22.60214 -7.59387,34.32252 0.9465,11.53647 2.07942,23.24881 3.30927,35.00155 m 2.0097,-22.63506 c 0.0536,9.81967 0.18189,19.65239 0.35287,29.49163 5.33299,9.82324 10.72109,19.65491 16.11742,29.48538 3.69347,1.93292 7.38808,3.86567 11.08142,5.79778 m -12.05276,-9.8285 c 9.82687,5.84558 19.92859,11.37865 30.12697,16.75857 13.4727,-1.17258 27.07818,-2.55551 40.52962,-3.89235 0.18558,-0.12843 0.37127,-0.25669 0.55706,-0.3848 m -15.65275,0.40393 c 3.6604,-0.36241 7.36313,-0.71157 11.10144,-1.04936 8.97823,-6.19733 18.62175,-11.93237 27.80206,-18.21414 5.06804,-7.60449 10.43577,-15.07619 15.55495,-22.65863 m -7.47063,13.30655 c 2.72083,-4.01906 5.45197,-8.12316 8.11678,-12.33669 4.74873,-14.02199 9.80656,-28.58599 15.1369,-43.4095 -1.0253,-10.06088 -1.77302,-20.28041 -2.55149,-30.49137 m 0.66764,19.16269 c -1.57997,-10.75883 -3.04311,-21.49693 -4.79488,-32.0945 -4.03197,-9.22141 -8.03257,-18.40158 -11.99405,-27.5402 -5.44669,-3.81752 -10.87592,-7.61648 -16.28532,-11.3968 6.9e-4,7.3e-4 0.001,0.001 0.002,0.002 -4.77488,-0.85847 -9.53932,-1.80459 -14.29211,-2.72813 m 19.94697,7.35668 c -3.59212,-2.72827 -7.18532,-5.43123 -10.77223,-8.11397 10e-4,-3.5e-4 0.002,-6.9e-4 0.003,-0.001 -10.99301,-2.36698 -21.94401,-5.13397 -32.73652,-6.99519 -9.48955,2.27173 -18.85371,4.58002 -28.0098,6.86772 -2.39466,2.97146 -4.83591,5.88066 -7.23353,8.78802"
       id="path2997"
       style="fill:none;stroke:#ffa500;stroke-width:0.42582551px;stroke-linecap:butt;stroke-linejoin:miter;stroke-opacity:1" />
  </g>
</svg>
